<?xml version="1.0" encoding="UTF-8" standalone="no"?>
<!-- Created with Inkscape (http://www.inkscape.org/) -->

<svg
   width="222.25mm"
   height="153.9875mm"
   viewBox="0 0 222.25 153.9875"
   version="1.1"
   id="svg5"
   inkscape:version="1.1 (ce6663b3b7, 2021-05-25)"
   sodipodi:docname="MITLogo.svg"
   xmlns:inkscape="http://www.inkscape.org/namespaces/inkscape"
   xmlns:sodipodi="http://sodipodi.sourceforge.net/DTD/sodipodi-0.dtd"
   xmlns="http://www.w3.org/2000/svg"
   xmlns:svg="http://www.w3.org/2000/svg">
  <sodipodi:namedview
     id="namedview7"
     pagecolor="#ffffff"
     bordercolor="#999999"
     borderopacity="1"
     inkscape:pageshadow="0"
     inkscape:pageopacity="0"
     inkscape:pagecheckerboard="0"
     inkscape:document-units="mm"
     showgrid="false"
     fit-margin-top="0"
     fit-margin-left="0"
     fit-margin-right="0"
     fit-margin-bottom="0"
     inkscape:zoom="0.45968013"
     inkscape:cx="521.01447"
     inkscape:cy="416.59403"
     inkscape:window-width="1024"
     inkscape:window-height="704"
     inkscape:window-x="0"
     inkscape:window-y="27"
     inkscape:window-maximized="1"
     inkscape:current-layer="layer1" />
  <defs
     id="defs2" />
  <g
     inkscape:label="Layer 1"
     inkscape:groupmode="layer"
     id="layer1"
     transform="translate(21.334303,-31.215551)">
    <path
       style="fill:#000000;stroke-width:0.264583"
       d="m 161.61305,176.8807 c -0.35719,-0.35719 -0.64944,-0.79429 -0.64944,-0.97135 0,-0.17706 -0.16229,-0.50989 -0.36066,-0.73963 -0.19837,-0.22974 -0.57064,-0.9804 -0.82727,-1.66812 -1.18947,-3.18756 -6.08309,-3.11571 -7.60273,0.11163 -1.15773,2.45874 -3.91613,3.47328 -5.57847,2.05176 -0.17338,-0.14826 -0.55337,-0.43457 -0.84441,-0.63623 -0.47272,-0.32756 -0.53034,-0.67232 -0.5402,-3.23213 -0.0182,-4.73201 -4.02759,-6.92046 -6.20982,-3.38952 -0.31305,0.50652 -0.69892,0.92094 -0.85749,0.92094 -0.15858,0 -0.47629,0.1626 -0.70603,0.36134 -0.77147,0.66736 -1.69367,0.68293 -3.16779,0.0535 -2.51713,-1.07482 -2.73554,-2.51563 -0.86503,-5.7065 1.40041,-2.38894 1.30723,-3.03828 -0.66826,-4.65705 -1.11536,-0.91395 -1.2393,-0.95326 -2.15421,-0.68323 -1.77566,0.52408 -4.73008,0.63124 -4.90406,0.17786 -0.0841,-0.21912 -0.44742,-0.5326 -0.80741,-0.69663 -1.77907,-0.8106 -1.84641,-4.63956 -0.0894,-5.08055 3.89906,-0.9786 3.99084,-5.51126 0.14478,-7.15001 -2.80957,-1.19712 -3.49903,-1.64341 -3.9794,-2.57591 -1.24866,-2.42391 -0.19509,-4.00319 3.04666,-4.56692 3.10514,-0.53997 4.61388,-2.86871 3.36745,-5.19768 -0.48081,-0.89841 -3.43795,0.63909 -3.43795,1.78748 0,1.85878 -5.80497,0.7442 -7.42829,-1.42626 -0.47666,-0.63731 -1.11125,-1.01451 -2.46951,-1.46785 -2.57453,-0.85928 -2.85175,-2.24696 -0.61788,-3.09285 0.2555,-0.0967 1.26753,-0.90967 2.24896,-1.8065 0.98143,-0.89683 2.73693,-2.383 3.90109,-3.3026 1.16417,-0.91959 2.31623,-2.07091 2.56014,-2.55847 0.24392,-0.48757 0.67647,-1.14165 0.96124,-1.45351 0.28477,-0.31186 0.71082,-0.9491 0.94678,-1.41609 0.23596,-0.46698 0.73269,-1.15273 1.10384,-1.52388 0.37116,-0.37116 0.84865,-1.06064 1.06109,-1.53219 0.21244,-0.47155 0.49159,-1.03596 0.62031,-1.25424 0.52298,-0.8868 1.84625,-4.20051 2.27163,-5.68854 0.24959,-0.87313 0.72363,-2.30188 1.05342,-3.175 2.30079,-6.09146 2.5283,-14.711694 0.51173,-19.389707 -0.20601,-0.47788 -0.37455,-1.156679 -0.37455,-1.508445 0,-0.351764 -0.19047,-1.329992 -0.42327,-2.173835 -0.66136,-2.397324 -0.70539,-2.673255 -0.53497,-3.352274 0.22971,-0.915236 0.92867,-1.08149 1.80935,-0.430371 0.41125,0.304048 0.86878,0.477993 1.01674,0.386548 0.14797,-0.09145 0.83384,-0.02151 1.52417,0.155422 1.12443,0.288181 1.42621,0.259307 2.89775,-0.277244 1.33975,-0.488498 1.71656,-0.537554 2.04368,-0.266073 0.22058,0.183071 0.78119,0.410599 1.24578,0.505619 1.7694,0.361878 2.60222,3.256722 1.74565,6.067782 -0.25944,0.851448 -2.9446,2.952369 -3.77338,2.952369 -2.51015,0 -2.38071,3.827881 0.14663,4.336076 0.34993,0.07036 1.21217,0.241194 1.91608,0.379622 0.70391,0.138427 1.37743,0.354415 1.4967,0.479973 3.85493,4.057964 2.32088,8.799078 -2.85991,8.838768 -1.79814,0.0138 -3.69239,0.35112 -4.06523,0.72396 -0.72765,0.72764 0.99361,2.43643 2.45632,2.43853 2.76927,0.004 4.37377,3.74102 3.12068,7.26838 -0.86907,2.44638 -0.84069,2.6321 0.44357,2.90205 1.59548,0.33538 3.14698,-1.47562 3.18942,-3.72287 0.0309,-1.63397 0.16211,-2.79563 0.50879,-4.50303 0.14036,-0.69127 2.03907,-1.41438 3.71385,-1.41438 1.24004,0 2.20919,0.85839 2.94097,2.60486 0.92956,2.21849 1.42421,2.68 2.87628,2.68354 1.62413,0.004 3.28726,-1.77775 3.28726,-3.52164 0,-0.18257 0.23813,-0.79902 0.52917,-1.36988 0.29104,-0.57086 0.52917,-1.18716 0.52917,-1.36955 0,-0.8721 2.70788,-1.19224 4.33479,-0.51247 1.23344,0.51537 1.92861,1.62594 2.15575,3.44397 0.54254,4.3423 4.12971,6.03628 6.27274,2.96219 0.31439,-0.45099 0.72642,-0.91519 0.91563,-1.03156 0.1892,-0.11637 0.344,-0.42935 0.344,-0.6955 0,-0.77878 2.53548,-1.6014 3.52612,-1.14403 0.31621,0.14599 0.90235,0.39677 1.30253,0.55729 0.40018,0.16052 0.7276,0.45455 0.7276,0.6534 0,0.19884 0.23813,0.57704 0.52917,0.84043 0.70463,0.63768 0.67189,1.82205 -0.0791,2.86192 -3.25098,4.50152 0.68529,8.62855 4.9958,5.23791 0.85361,-0.67146 2.92216,-0.76063 4.05501,-0.17481 1.79351,0.92746 1.88958,4.5272 0.15914,5.96334 -2.58528,2.14559 -1.36307,5.82309 1.93529,5.82309 3.82466,0 5.33803,0.99371 5.33803,3.50504 0,1.46006 -1.51389,3.12295 -2.95202,3.24256 -0.48644,0.0405 -1.02577,0.0866 -1.19851,0.10256 -1.11485,0.10297 -2.46308,2.45283 -1.9542,3.40604 0.13489,0.25269 0.3078,0.6627 0.38423,0.91115 0.15549,0.50544 1.79659,1.61978 2.81008,1.90811 2.82088,0.80249 3.43048,1.44455 3.43553,3.61843 0.006,2.48359 -0.89444,3.14986 -4.25581,3.14986 -2.35459,0 -4.0407,0.64734 -4.36742,1.67676 -0.70025,2.20629 0.25345,4.75719 2.09938,5.61528 1.3393,0.62258 1.91936,2.49373 1.17524,3.79107 -0.21795,0.37997 -0.47763,1.03178 -0.57708,1.44848 -0.20135,0.84364 -1.88531,0.89636 -4.65359,0.1457 -4.79324,-1.29976 -7.4347,1.28462 -5.46416,5.34608 2.41989,4.9876 -2.38114,7.4652 -6.31398,3.25837 -2.11987,-2.26755 -5.15519,-2.26846 -5.15519,-0.002 0,0.19296 -0.17192,0.49352 -0.38203,0.6679 -0.27731,0.23014 -0.34175,0.65719 -0.23509,1.55779 0.38652,3.26357 -3.24694,5.72703 -5.34803,3.62593 z m 3.2437,-9.28159 c 0.40539,-0.21146 1.05113,-0.3852 1.43497,-0.3861 0.38385,-7.9e-4 1.45541,-0.34341 2.38125,-0.76114 0.92584,-0.41774 2.37841,-1.04282 3.22792,-1.38907 0.85116,-0.34692 1.97436,-1.07497 2.50192,-1.62173 0.52654,-0.5457 1.0459,-0.99219 1.15414,-0.99219 0.53307,0 2.70904,-1.76349 3.26745,-2.64806 0.34826,-0.55168 0.73361,-1.04476 0.85633,-1.09572 0.70174,-0.29144 4.13732,-6.91384 4.55792,-8.78584 0.12705,-0.56544 0.35949,-1.15657 0.51652,-1.3136 0.15704,-0.15704 0.28553,-1.01181 0.28553,-1.89948 0,-0.88768 0.10977,-1.72707 0.24393,-1.86532 0.58681,-0.60465 0.51022,-4.68533 -0.13659,-7.27796 -0.34698,-1.39078 -0.75034,-3.15869 -0.89637,-3.92869 -0.27514,-1.45082 -2.57393,-6.42063 -3.63337,-7.85509 -0.33258,-0.4503 -0.60469,-0.88182 -0.60469,-0.95893 0,-0.29036 -1.7702,-2.05881 -2.06085,-2.05881 -0.16692,0 -0.45613,-0.28747 -0.64267,-0.63882 -0.42798,-0.80608 -5.11578,-4.22778 -7.21835,-5.26879 -0.87313,-0.43229 -1.7661,-0.92894 -1.98438,-1.10365 -0.88137,-0.70544 -7.881,-1.89117 -9.66277,-1.63687 -0.57907,0.0827 -1.82676,0.28312 -2.77264,0.44549 -0.94589,0.16237 -2.37464,0.32503 -3.175,0.36148 -0.80037,0.0365 -2.05052,0.31686 -2.77813,0.62315 -0.7276,0.30629 -2.35227,0.87167 -3.61038,1.25639 -1.2581,0.38472 -2.47102,0.9012 -2.69537,1.14774 -0.22435,0.24654 -0.86187,0.67992 -1.41671,0.96306 -1.22385,0.62456 -2.464,1.71306 -2.464,2.1627 0,0.18125 -0.24129,0.40613 -0.53621,0.49974 -0.29492,0.0936 -0.72533,0.45881 -0.95647,0.81158 -0.23114,0.35276 -0.58516,0.64139 -0.7867,0.64139 -0.20155,0 -0.36645,0.11377 -0.36645,0.25283 0,0.28718 -0.81509,1.5762 -2.37233,3.7517 -0.58699,0.82004 -1.06725,1.65671 -1.06725,1.85926 0,0.20255 -0.35719,0.75935 -0.79375,1.23732 -0.43657,0.47798 -0.79375,0.94162 -0.79375,1.03032 0,0.0887 -0.16672,0.34924 -0.37048,0.57898 -0.43798,0.49381 -0.95244,3.59498 -0.95244,5.74127 0,0.83492 -0.14471,1.91823 -0.32158,2.40736 -0.23813,0.65853 -0.24528,1.0115 -0.0276,1.36012 0.16171,0.25894 0.23283,0.79086 0.15805,1.18206 -0.0748,0.39119 0.0232,1.09557 0.21779,1.5653 0.19457,0.46972 0.37821,1.45105 0.4081,2.18074 0.0846,2.06423 0.36587,3.21871 0.93253,3.82695 0.28639,0.3074 0.58894,1.00169 0.67235,1.54287 0.0834,0.54118 0.31344,1.30547 0.5112,1.69842 0.19775,0.39296 0.35955,0.96919 0.35955,1.28051 0,0.31132 0.23626,0.76372 0.52504,1.00533 0.28877,0.2416 0.80112,0.96889 1.13855,1.61618 0.33743,0.64729 0.94486,1.36167 1.34984,1.5875 0.40498,0.22583 0.88068,0.68147 1.0571,1.01252 0.41524,0.77917 2.7456,2.70537 3.27303,2.70537 0.22372,0 0.96894,0.52585 1.65603,1.16854 0.6871,0.6427 1.67984,1.28743 2.20609,1.43274 0.52626,0.1453 1.27241,0.51243 1.65813,0.81583 0.38571,0.3034 1.03563,0.55164 1.44425,0.55164 0.40861,0 1.1367,0.22959 1.61796,0.5102 1.04813,0.61112 3.89017,1.16071 4.80933,0.93001 0.36166,-0.0908 0.86785,-0.0474 1.12487,0.0965 0.73202,0.40966 8.6477,0.11522 9.54958,-0.35521 z m 3.85873,-5.87783 c -0.093,-0.25466 -0.3903,-0.75131 -0.66074,-1.10366 -0.59475,-0.77488 -0.29587,-1.1767 0.69101,-0.92901 0.88956,0.22327 1.5815,1.22449 1.3501,1.95357 -0.21086,0.66437 -1.14713,0.71802 -1.38037,0.0791 z m -6.87574,-0.97963 c -1.04611,-0.17474 -2.05814,-0.44677 -2.24896,-0.60452 -0.19083,-0.15775 -1.1804,-0.34708 -2.19904,-0.42074 -2.04544,-0.14791 -4.46074,-0.5311 -6.08542,-0.96545 -4.39208,-1.1742 -8.42233,-1.4457 -9.96426,-0.67123 -2.14166,1.07569 -3.46248,0.22073 -2.52157,-1.63219 0.96025,-1.89099 0.85171,-3.21124 -0.35565,-4.32587 -1.19319,-1.10155 -1.19081,-1.0771 -0.61791,-6.34152 0.0554,-0.50932 0.17007,-2.23572 0.25477,-3.83645 0.0847,-1.60073 0.2642,-3.34564 0.39891,-3.87757 0.1347,-0.53194 0.23081,-1.78209 0.21358,-2.77813 -0.0172,-0.99603 0.0968,-2.86968 0.25351,-4.16366 0.15667,-1.29398 0.22079,-2.45634 0.1425,-2.58302 -0.35295,-0.57109 0.78408,-2.33461 1.60449,-2.48852 1.15185,-0.21609 12.18125,0.37637 13.03263,0.70007 0.38662,0.14699 1.66244,0.23952 2.83514,0.2056 1.26093,-0.0365 2.36835,0.0665 2.71011,0.25189 0.73544,0.399 1.74092,0.40242 2.13608,0.007 0.21703,-0.21703 0.40593,-0.22472 0.64823,-0.0264 0.18807,0.15395 1.92043,0.32903 3.84969,0.38906 4.02189,0.12514 3.90293,0.18788 4.67697,-2.46678 0.44792,-1.53623 1.31836,-3.14586 1.70117,-3.14586 0.38249,0 0.89259,1.50181 0.70783,2.08394 -0.0962,0.30317 0.0224,0.90746 0.27351,1.39299 0.2439,0.47165 0.57746,1.40034 0.74124,2.06375 0.29778,1.2062 0.29778,1.2062 1.88528,1.2062 2.07563,0 2.14099,0.99791 0.89253,13.62604 -0.15106,1.52797 -0.32216,4.14734 -0.38022,5.82083 -0.25979,7.4878 -0.96253,8.34972 -5.72156,7.01762 -0.86199,-0.24127 -1.81033,-0.34467 -2.21947,-0.24198 -1.13304,0.28437 -1.79249,0.28848 -2.35109,0.0146 -0.82044,-0.40222 -14.00156,-0.69351 -14.37411,-0.31766 -0.38557,0.389 1.3812,1.46225 2.40934,1.46359 0.55527,7.9e-4 1.2441,0.12683 1.53074,0.28023 0.57564,0.30807 3.88608,1.25782 5.13259,1.47251 0.43656,0.0752 1.03188,0.2352 1.32292,0.35557 0.29104,0.12037 1.24354,0.36173 2.11667,0.53637 2.68933,0.53789 3.65296,1.30356 1.66295,1.32133 -0.24954,0.002 -0.58115,0.24217 -0.73691,0.53321 -0.31715,0.59259 -0.60285,0.60492 -3.35721,0.14485 z m -4.79237,-2.39381 c 0.0135,-0.14552 -0.39331,-0.3325 -0.90404,-0.41552 -0.51074,-0.083 -1.24804,-0.40221 -1.63846,-0.70931 -0.39042,-0.30711 -1.09122,-0.63591 -1.55733,-0.73067 -0.46611,-0.0948 -1.20466,-0.28389 -1.64122,-0.42028 -0.43656,-0.13639 -1.86364,-0.54762 -3.17128,-0.91384 -1.30765,-0.36623 -2.49232,-0.78065 -2.63261,-0.92093 -0.8437,-0.84371 -3.10099,0.26643 -2.56774,1.26282 0.37173,0.69457 1.4639,1.03438 3.99727,1.24368 1.08659,0.0898 2.24326,0.33857 2.57037,0.5529 0.32711,0.21433 1.06816,0.38969 1.64678,0.38969 0.57861,0 1.12561,0.11907 1.21555,0.26459 0.0899,0.14552 0.8411,0.2664 1.66926,0.26863 0.82815,0.002 1.68433,0.12114 1.90261,0.26425 0.47197,0.30944 1.07637,0.23544 1.11084,-0.13601 z m -15.83841,-1.65364 c 0.56159,-0.89168 0.81296,-1.53528 1.47887,-3.78652 0.27416,-0.92685 -0.0971,-1.79272 -0.89941,-2.09776 -0.84569,-0.32154 -0.85723,-0.73902 -0.0262,-0.94759 1.56909,-0.39382 2.75517,0.61881 2.07449,1.77111 -0.59484,1.00699 -0.26641,1.24241 1.76243,1.26327 0.81061,0.008 3.25978,0.13887 5.44259,0.29008 3.73489,0.25873 10.45567,0.4451 19.15016,0.53104 4.59413,0.0454 4.36257,0.22294 4.53005,-3.47285 0.18476,-4.07704 -0.0228,-4.27937 -2.98213,-2.90656 -0.90644,0.4205 -2.18386,0.92059 -2.8387,1.11131 -0.65485,0.19072 -1.56971,0.62872 -2.03304,0.97332 -1.65376,1.23 -3.76718,-0.029 -3.78344,-2.25385 -0.007,-0.92872 0.76582,-0.71637 1.20332,0.33073 0.53876,1.28943 0.95102,1.18147 0.75776,-0.19844 -0.24121,-1.7224 -0.29856,-1.81594 -1.00472,-1.63871 -2.32756,0.58418 0.62617,-3.32928 3.18019,-4.2135 1.1477,-0.39735 1.48381,-0.95892 0.57749,-0.96486 -1.09644,-0.007 -1.35426,-0.35385 -1.15229,-1.54933 0.23699,-1.4027 0.5878,-1.60675 0.87094,-0.50657 0.17715,0.6883 0.37834,0.88736 0.96618,0.95595 0.46268,0.054 0.79237,0.27754 0.87494,0.59328 0.0838,0.32061 0.52284,0.61176 1.19551,0.7929 0.58467,0.15743 1.25563,0.38425 1.49103,0.50403 2.29335,1.16701 3.20613,1.23629 3.20613,0.24337 0,-0.28968 0.17771,-0.87035 0.39491,-1.29037 0.66917,-1.29404 -0.0111,-1.69933 -2.52669,-1.50534 -1.97999,0.15269 -2.02156,0.14341 -1.91766,-0.42796 0.079,-0.43425 -0.10064,-0.69963 -0.70031,-1.03475 -0.99087,-0.55375 -1.04674,-1.33629 -0.15445,-2.16323 0.52938,-0.49062 0.62425,-0.77558 0.50429,-1.51483 -0.4395,-2.70828 1.11932,-2.52827 1.62521,0.18767 0.74992,4.0261 0.71919,3.95192 1.59609,3.8522 1.42504,-0.16206 1.60343,-1.71484 0.53694,-4.6736 -0.36717,-1.01864 -0.67066,-2.05414 -0.67442,-2.3011 -0.004,-0.24696 -0.30449,-1.00884 -0.66829,-1.69305 -0.3638,-0.68422 -0.66146,-1.44062 -0.66146,-1.68088 0,-0.45795 -0.48493,-1.07184 -0.84667,-1.07184 -0.11641,0 -0.21166,0.18096 -0.21166,0.40213 0,0.22117 -0.31865,0.90578 -0.7081,1.52135 -0.43001,0.67968 -0.89945,2.05439 -1.19535,3.50048 -0.44014,2.15097 -1.56734,4.9839 -2.11862,5.32462 -0.50754,0.31367 -0.52286,-0.85853 -0.0243,-1.85979 0.29675,-0.59597 0.68754,-1.61937 0.86843,-2.27421 0.1809,-0.65484 0.44392,-1.50674 0.58449,-1.89311 0.39247,-1.07867 0.18211,-1.95652 -0.44938,-1.87533 -0.29097,0.0374 -1.42201,-0.0491 -2.51341,-0.19235 -1.91529,-0.25131 -7.02688,-0.55692 -10.58334,-0.63275 -2.05758,-0.0439 -2.50549,0.60831 -0.63687,0.9273 1.43331,0.24469 3.33318,1.15527 4.08901,1.95981 0.33487,0.35645 0.79646,0.65206 1.02575,0.6569 0.92167,0.0195 2.93045,2.92784 2.93045,4.24279 0,0.14726 0.25315,0.61016 0.56256,1.02867 0.68201,0.92246 0.62341,3.63652 -0.0957,4.43326 -0.2356,0.26102 -0.51074,1.21676 -0.61404,2.13296 -0.10295,0.91302 -0.32352,1.74646 -0.49015,1.85209 -0.16663,0.10563 -0.71647,0.72683 -1.22187,1.38044 -1.12145,1.45033 -2.06822,2.3159 -2.77099,2.53333 -0.29104,0.09 -1.06495,0.41594 -1.71979,0.72421 -1.07725,0.50711 -1.77198,0.61527 -4.7625,0.74147 -0.50933,0.0215 -1.64042,-0.21906 -2.51355,-0.53457 -0.87312,-0.31551 -2.00195,-0.70098 -2.50851,-0.85661 -0.50656,-0.15563 -1.55668,-0.86393 -2.3336,-1.57399 -1.23246,-1.12639 -1.77342,-1.92059 -3.38226,-4.9656 -0.18212,-0.34469 -0.27284,-0.99953 -0.2016,-1.45521 0.0712,-0.45567 0.0198,-1.51418 -0.11434,-2.35224 -0.22276,-1.39187 -0.19006,-1.59666 0.37791,-2.3665 0.34199,-0.46353 0.62179,-0.99796 0.62179,-1.18763 0,-0.43397 1.82175,-2.99192 2.13082,-2.99192 0.12601,0 0.68039,-0.48875 1.23195,-1.08611 1.1962,-1.2955 3.07323,-2.30286 4.70866,-2.52702 1.51546,-0.20771 1.65593,-0.88479 0.18357,-0.88479 -0.55298,0 -1.13069,-0.12527 -1.2838,-0.27839 -0.30018,-0.30017 -7.03358,-0.61519 -7.81929,-0.36582 -0.40011,0.12699 -0.47483,0.45744 -0.47483,2.10003 0,1.07212 -0.10393,2.22496 -0.23095,2.56185 -0.12703,0.3369 -0.31592,2.39848 -0.41975,4.58129 -0.10384,2.18281 -0.29212,4.09345 -0.4184,4.24585 -0.12628,0.15241 -0.30359,2.4913 -0.39403,5.19753 -0.17724,5.30373 -0.16172,5.37329 1.19855,5.37329 0.72813,0 1.08755,1.00265 0.55157,1.53864 -0.15784,0.15784 -0.28699,0.53701 -0.28699,0.84261 0,0.30559 -0.0948,0.66873 -0.21057,0.80698 -0.54124,0.64607 -0.89093,2.26178 -0.57254,2.64542 0.51755,0.62361 1.00143,0.44698 1.66596,-0.60813 z m 12.60642,-7.74744 c -0.87637,-1.63751 -5.15533,-1.66027 -4.63621,-0.0247 0.15056,0.47436 0.39268,0.56511 1.54967,0.5808 0.75418,0.0102 1.60936,0.11433 1.9004,0.23134 0.81348,0.32706 1.52855,-0.14767 1.18614,-0.78747 z m 3.67758,-0.93069 c 0.33203,-0.33203 -0.62905,-1.64782 -1.40983,-1.93015 -3.08707,-1.1163 -6.0918,-1.56768 -6.42867,-0.96574 -0.2172,0.38811 -0.32953,0.40172 -0.81478,0.0987 -0.44415,-0.27737 -0.63121,-0.28315 -0.88696,-0.0274 -0.17826,0.17825 -0.78028,0.3241 -1.33783,0.3241 -1.36327,0 -1.61741,0.64739 -0.59827,1.52401 0.83627,0.71933 2.19347,0.69798 3.01717,-0.0475 0.24198,-0.21898 0.6737,-0.35325 0.95937,-0.29835 2.64012,0.50728 3.81203,0.78678 4.48816,1.07039 1.42915,0.59949 1.58023,0.63259 2.24842,0.49265 0.3635,-0.0761 0.70695,-0.18444 0.76322,-0.24071 z m 10.82797,-2.01653 c 3.18002,-0.79335 3.51083,-2.87281 0.45517,-2.86119 -1.33114,0.005 -1.52545,0.13529 -2.20638,1.47871 -0.81731,1.61248 -0.42191,1.92462 1.75121,1.38248 z m 6.02837,-0.8486 c 0.32105,-0.83663 -0.29264,-2.1458 -1.04727,-2.23415 -0.73349,-0.0859 -0.81712,0.57377 -0.28756,2.26803 0.13977,0.4472 1.16016,0.42131 1.33483,-0.0339 z m -15.5308,-0.3279 c 0.18652,-0.15886 -0.5789,-0.92206 -1.2752,-1.27152 -1.73831,-0.87242 -3.1102,-0.61635 -2.88539,0.53857 0.14954,0.76819 3.43886,1.34765 4.16059,0.73295 z m -12.19799,-0.59221 c 1.42271,-0.71157 2.5869,-0.86841 3.93203,-0.5297 1.53735,0.38711 2.58911,-0.0705 2.35018,-1.02246 -0.11074,-0.44121 -0.0219,-0.66077 0.31533,-0.77916 0.25824,-0.0907 0.67523,-0.41547 0.92666,-0.7218 0.36376,-0.44319 0.45834,-0.47075 0.46302,-0.13494 0.0148,1.05864 2.35839,1.89637 3.32596,1.18886 0.45665,-0.33391 0.47927,-0.47543 0.196,-1.2259 -0.26437,-0.7004 -0.24889,-0.9864 0.0887,-1.63928 0.55967,-1.08228 0.24266,-1.27204 -1.75672,-1.05156 -1.71523,0.18914 -1.7158,0.18949 -1.74225,1.05351 -0.0284,0.92638 -0.37042,1.55946 -0.37042,0.68557 0,-1.60065 -3.56201,-2.3445 -4.73989,-0.98983 -0.48058,0.55271 -0.77821,0.63058 -2.41041,0.63058 -2.17686,0 -2.67509,0.46739 -1.53949,1.44419 0.68721,0.59111 0.32383,0.9271 -1.69511,1.56736 -0.53271,0.16894 -0.62285,1.2207 -0.14552,1.69803 0.46358,0.46358 1.67859,0.38836 2.8019,-0.17347 z m 15.18428,-0.79996 c 0.43841,-0.40075 0.5022,-1.53772 0.10478,-1.86755 -0.56631,-0.46999 -2.18649,-0.13566 -2.53955,0.52403 -0.6719,1.25547 1.3254,2.35759 2.43477,1.34352 z m -0.27562,-3.74185 c 1.97944,-0.54981 1.20806,-2.93938 -0.85932,-2.66202 -1.43594,0.19265 -1.93448,1.12817 -1.19921,2.25034 0.49761,0.75944 0.67721,0.79536 2.05853,0.41168 z m -16.86581,-1.38336 c 0.44745,-0.7138 -0.11706,-1.37438 -1.25731,-1.47131 -1.25209,-0.10643 -1.54217,0.50731 -0.6757,1.42963 0.68696,0.73123 1.4899,0.74854 1.93301,0.0417 z m 9.22265,-1.11912 c 1.6558,-0.69472 -0.19419,-1.85438 -2.52645,-1.58369 -1.32081,0.1533 -1.90036,0.0563 -4.14562,-0.69388 -2.23417,-0.74648 -2.67243,-0.82041 -3.04257,-0.51322 -0.71079,0.5899 -0.41113,1.68257 0.54631,1.99205 0.45082,0.14573 0.99157,0.40762 1.20165,0.58197 0.60536,0.50241 6.87905,0.67311 7.96668,0.21677 z m 4.09061,-0.54086 c 2.27703,-0.15886 3.32796,-1.45569 2.04353,-2.52167 -0.78356,-0.65029 -3.28987,0.6052 -3.28987,1.64801 0,0.38796 -0.13498,0.45932 -0.63259,0.33442 -0.66697,-0.16739 -1.10844,0.21539 -0.80837,0.70091 0.099,0.16013 0.42843,0.20937 0.74322,0.11108 0.311,-0.0971 1.18583,-0.21984 1.94408,-0.27275 z m -4.13936,-1.98735 c 0.71244,-0.38129 0.66014,-1.2733 -0.0835,-1.42481 -1.66914,-0.34004 -2.28019,-0.35689 -3.35125,-0.0924 -1.11144,0.27447 -1.1962,0.25371 -1.73782,-0.42555 -0.63899,-0.80136 -1.3287,-0.72854 -1.61401,0.1704 -0.23225,0.73174 0.4192,1.18831 1.9763,1.38509 0.67158,0.0849 1.57824,0.2562 2.0148,0.38072 1.12883,0.32198 2.20142,0.32449 2.79552,0.007 z m 3.78443,-1.27535 c 0.50953,-0.56302 0.34346,-1.24808 -0.39884,-1.64535 -0.61764,-0.33055 -1.02174,-0.11352 -1.02174,0.54875 0,0.27387 -0.11906,0.57153 -0.26458,0.66146 -0.14552,0.0899 -0.26458,0.33509 -0.26458,0.54479 0,0.56 1.41577,0.48038 1.94974,-0.10965 z m -4.57818,-1.37049 c 1.57164,-0.84111 0.22779,-1.84399 -2.20885,-1.6484 -2.41242,0.19364 -2.70043,1.38535 -0.33766,1.39718 0.44513,0.002 0.98792,0.11947 1.2062,0.26053 0.50756,0.32801 0.71269,0.32658 1.34031,-0.009 z m 23.53052,-0.61975 c 0,-0.92574 -0.56451,-1.66052 -1.04674,-1.36248 -0.62574,0.38673 -0.0795,2.25612 0.65917,2.25612 0.26387,0 0.38757,-0.28522 0.38757,-0.89364 z m -53.43937,2.94417 c 1.64972,-0.94676 1.69925,-2.26241 0.20023,-5.31898 -1.95496,-3.98624 -2.55791,-4.08546 -5.63065,-0.92659 -0.51518,0.52963 -1.33235,1.26826 -2.06897,1.87011 -0.77984,0.63717 -0.54973,0.92681 2.16236,2.72181 3.62477,2.39905 3.89321,2.48223 5.33703,1.65365 z m 8.98937,-10.36326 c 1.59343,-2.20748 1.05358,-4.59279 -1.24935,-5.52015 -0.54978,-0.2214 -1.28825,-0.71191 -1.64104,-1.09003 -0.90241,-0.96722 -2.66586,-0.39778 -2.66586,0.86085 0,0.15573 -0.53578,0.94093 -1.19062,1.74491 -1.76726,2.16971 -1.56445,2.80607 1.19062,3.73584 0.80036,0.2701 1.75286,0.69015 2.11667,0.93344 1.32735,0.88765 2.47972,0.6649 3.43958,-0.66486 z m -0.16761,-10.8465 c 0.21994,0.0844 1.06015,0.0164 1.86712,-0.15114 1.24459,-0.25838 1.55707,-0.24166 2.05939,0.11018 2.71583,1.90224 4.28064,-2.52561 1.7312,-4.89869 -3.7008,-3.4448 -5.79084,-3.23189 -6.51868,0.66406 -0.13011,0.69646 -0.48769,1.60595 -0.79462,2.02109 -0.99275,1.34277 -0.4233,2.99962 0.80501,2.34225 0.24788,-0.13266 0.63064,-0.17215 0.85058,-0.0877 z m 8.06023,-12.69985 c 2.90759,-1.50357 1.29346,-5.748727 -2.46866,-6.492624 -0.87313,-0.172646 -1.7661,-0.362514 -1.98438,-0.421931 -0.77982,-0.21227 -1.14854,0.384751 -1.50425,2.435661 -0.66745,3.848203 -0.6909,4.193464 -0.30646,4.512524 0.80015,0.66406 4.95773,0.64174 6.26375,-0.0336 z m -4.55629,-12.131795 c 4.3519,-2.548022 5.38931,-3.838136 4.7039,-5.849712 -0.64464,-1.891922 -0.94718,-2.006616 -4.83252,-1.832063 -3.96949,0.178335 -4.30591,0.355243 -3.67212,1.930988 0.30124,0.748932 0.69454,2.250524 1.00487,3.836458 0.4448,2.273141 1.24604,2.821747 2.79587,1.914329 z M 19.580742,175.59772 c -0.509738,-0.48075 -0.999937,-1.22489 -1.089329,-1.65365 -1.011299,-4.85059 -3.002368,-6.1536 -5.691145,-3.72445 -0.584748,0.52828 -1.176179,0.96051 -1.314289,0.96051 -0.13811,0 -0.608436,0.51936 -1.045168,1.15413 -2.710484,3.93955 -7.5639528,-0.18241 -5.5570001,-4.71946 1.6755787,-3.78792 -1.3053695,-5.67979 -5.70523212,-3.62085 -3.26423578,1.52752 -4.58301518,1.10637 -6.28501018,-2.00713 -0.573402,-1.04893 -0.5900922,-1.48976 -0.072663,-1.91919 0.2182813,-0.18115 0.396875,-0.5072 0.396875,-0.72455 0,-0.21735 0.4234508,-0.97203 0.9410018,-1.67708 2.2608516,-3.07989 0.2241338,-5.53587 -4.5908494,-5.53587 -2.373903,0 -3.277234,-1.0443 -3.264181,-3.77357 0.0079,-1.66057 0.96095,-3.10559 2.048165,-3.10559 0.852802,0 3.0128595,-2.56264 3.1706459,-3.76158 0.1994752,-1.51571 -0.069802,-1.80881 -3.0438079,-3.31321 -4.614038,-2.33399 -5.099691,-5.24704 -1.130513,-6.78105 0.628056,-0.24274 1.238534,-0.38162 1.356619,-0.30864 0.443439,0.27406 4.8182808,-0.87148 5.1871888,-1.35825 0.8730965,-1.15204 0.3573169,-2.23723 -2.2867225,-4.81119 -2.3988723,-2.33529 -2.5904753,-3.10705 -1.2927114,-5.20687 1.1448206,-1.85236 5.2355732,-1.701 6.8578656,0.25374 1.94968869,2.34923 5.0890316,-1.538 3.75001185,-4.64338 -2.21274635,-5.13168 2.60985665,-10.59379 5.65135055,-6.40076 3.3403698,4.60507 6.4350661,3.73315 6.8155421,-1.92026 0.404947,-6.0171 6.001485,-6.78491 7.724502,-1.05976 0.213371,0.70897 0.740178,1.65848 1.170684,2.11002 0.430503,0.45154 0.825055,1.0591 0.876779,1.35015 0.121435,0.68329 0.914267,0.78696 2.130869,0.27863 0.962771,-0.40227 1.693079,-1.30525 3.931195,-4.8607 1.340713,-2.12984 2.891952,-2.22331 4.963544,-0.29909 1.147384,1.06577 1.147384,1.06577 1.096147,2.97346 -0.123028,4.58083 0.326554,5.62475 2.550872,5.92303 2.415146,0.32387 4.272344,-2.68859 2.245371,-3.64209 -2.006852,-0.94403 -2.673726,-4.40784 -1.367409,-7.10244 0.101108,-0.20855 0.354467,-0.46531 0.563022,-0.57058 1.273932,-0.64297 3.752483,-1.58665 4.513329,-1.71838 3.34268,-0.578752 3.053167,-3.17042 -0.383585,-3.43381 -4.0952,-0.313854 -7.016467,-2.245053 -7.048465,-4.65962 -0.04959,-3.741229 2.250101,-5.627039 7.531248,-6.175846 2.097241,-0.21794 2.513541,-0.445923 2.513541,-1.376516 0,-0.760148 -0.937141,-2.19126 -1.434912,-2.19126 -3.159736,0 -7.298833,-6.271155 -5.283732,-8.005395 0.379331,-0.326462 0.793914,-0.863589 0.921298,-1.19362 0.450546,-1.167292 3.327694,-1.505564 5.833727,-0.68588 1.066546,0.348848 1.879798,0.398135 4.150756,0.251542 3.711136,-0.239553 3.80187,-0.236413 4.034349,0.139748 0.112596,0.182184 -0.123434,0.907394 -0.542515,1.666899 -0.408004,0.739428 -0.942568,1.968092 -1.187919,2.730365 -0.245353,0.762273 -0.556053,1.453909 -0.690448,1.536967 -0.134395,0.08306 -0.244354,0.376203 -0.244354,0.651426 0,0.275222 -0.157369,0.595616 -0.34971,0.711988 -0.473165,0.286277 -1.305131,3.557289 -1.388322,5.458412 -0.03713,0.848466 -0.213688,1.895584 -0.392358,2.326929 -0.228124,0.550743 -0.265645,1.430697 -0.126003,2.955255 0.109368,1.194044 0.188598,2.587707 0.176067,3.09703 -0.103333,4.199843 0.0693,5.909216 1.002054,9.921876 0.485746,2.08966 2.542842,7.76158 2.996501,8.26208 0.254662,0.28096 0.463021,0.74222 0.463021,1.02503 0,0.28281 0.339643,0.92828 0.754764,1.43438 0.415118,0.5061 0.993246,1.46201 1.284724,2.12424 0.291481,0.66224 0.891021,1.61529 1.332315,2.1179 0.44129,0.5026 1.070697,1.42866 1.39868,2.05791 0.327983,0.62925 0.847315,1.24779 1.15407,1.37453 0.547468,0.2262 1.97897,1.86875 3.682825,4.2258 0.473369,0.65485 1.421112,1.54782 2.106092,1.98438 1.740656,1.10938 1.955368,2.51354 0.384352,2.51354 -0.557461,0 -3.222882,1.16236 -3.865589,1.68574 -0.201697,0.16425 -0.855152,0.49213 -1.452121,0.72862 -1.29777,0.51413 -1.46151,1.22069 -0.696478,3.00544 0.875382,2.04218 -0.412208,4.17823 -2.548557,4.22794 -0.464666,0.0108 -1.090398,0.24187 -1.390515,0.51348 -0.300117,0.2716 -0.811443,0.50745 -1.136274,0.52411 -0.364226,0.0187 -0.821024,0.38525 -1.191739,0.95634 -0.330624,0.50932 -0.729459,1.07755 -0.886304,1.26273 -0.567722,0.6703 2.111468,4.62833 3.341965,4.93717 0.713137,0.17898 1.961124,1.96158 1.961124,2.80121 0,2.44766 -3.287282,4.43672 -5.45986,3.30364 -3.251708,-1.69588 -5.76693,1.46568 -3.771672,4.74088 0.272653,0.44756 0.578212,0.99234 0.679021,1.21062 0.100809,0.21828 0.399489,0.55245 0.663734,0.7426 0.6682,0.48085 0.680074,3.19466 0.01744,3.98285 -1.20949,1.43863 -3.623186,1.34517 -6.151563,-0.23821 -3.614983,-2.26385 -5.19499,-0.93312 -5.336212,4.49431 -0.148754,5.71689 -4.291322,6.76237 -7.105972,1.79336 -0.897007,-1.58358 -0.990505,-1.66146 -2.435845,-2.02898 -2.030285,-0.51626 -2.192054,-0.36475 -4.026511,3.77119 -1.368025,3.08431 -3.973142,3.92436 -6.061665,1.95463 z m 8.62996,-8.11488 c 2.281168,-0.236 5.418455,-1.36832 5.885653,-2.12426 0.08969,-0.14513 0.402733,-0.26386 0.695656,-0.26386 0.97509,0 7.012614,-3.7771 7.254195,-4.53825 0.07719,-0.2432 0.671094,-0.87709 1.319792,-1.40865 0.648697,-0.53156 1.248267,-1.24065 1.332375,-1.57577 0.08411,-0.33512 0.487313,-0.85653 0.896004,-1.15868 0.408694,-0.30217 1.005361,-1.09119 1.325925,-1.75339 0.320566,-0.6622 0.694272,-1.27286 0.830458,-1.35703 0.437841,-0.2706 1.712905,-3.11194 2.069833,-4.6124 0.190391,-0.80036 0.5574,-1.81239 0.815575,-2.24896 0.56179,-0.94995 0.918343,-2.88802 0.618837,-3.36372 -0.117885,-0.18725 -0.177885,-0.9956 -0.133332,-1.79635 0.18949,-3.40566 -1.547897,-11.64854 -2.730685,-12.95551 -0.206449,-0.22812 -0.590267,-0.89249 -0.852929,-1.47638 -0.262665,-0.58388 -0.753139,-1.35564 -1.089946,-1.71503 -0.336806,-0.35938 -0.986718,-1.30827 -1.444252,-2.10863 -1.701114,-2.97578 -6.497187,-7.14375 -8.2203,-7.14375 -0.70485,0 -3.084531,1.23424 -3.084531,1.59982 0,0.12742 -0.54011,0.89478 -1.20024,1.70524 -0.660132,0.81047 -1.314693,1.73783 -1.454578,2.06082 -0.139883,0.32298 -0.391213,0.77717 -0.558512,1.00931 -0.486465,0.67501 -0.05591,1.67725 1.019498,2.37317 0.547635,0.35439 1.385123,1.23966 1.861082,1.96726 0.475961,0.72761 0.982623,1.36226 1.125916,1.41034 0.143293,0.0481 0.452344,0.49164 0.686781,0.98568 0.234437,0.49403 0.887818,1.42262 1.451957,2.06351 1.100108,1.24979 1.566013,2.20769 1.566013,3.2197 0,0.58381 1.436891,2.55037 4.068141,5.56775 0.614309,0.70446 1.741572,1.47232 3.263789,2.2232 2.982809,1.47136 3.371045,1.94384 1.862341,2.26644 -0.472943,0.10112 -0.978959,0.27803 -1.124479,0.39313 -0.145521,0.1151 -0.807189,0.29002 -1.470369,0.38872 -1.425988,0.21222 -1.380562,0.25469 -2.869555,-2.68281 -1.002765,-1.97827 -1.926984,-3.05542 -3.712038,-4.32628 -0.383201,-0.27282 -0.734245,-1.09986 -1.123045,-2.64584 -0.383738,-1.52586 -0.805818,-2.52658 -1.312741,-3.11242 -0.410932,-0.47491 -0.931026,-1.21905 -1.155766,-1.65365 -0.22474,-0.43459 -0.502713,-0.79018 -0.61772,-0.79018 -0.115004,0 -0.482788,-0.66032 -0.817295,-1.46737 -0.608195,-1.46739 -0.608195,-1.46739 -2.09921,-1.38907 -1.491011,0.0783 -1.491011,0.0783 -1.409004,-1.02836 0.09551,-1.28884 -0.230759,-1.55539 -2.007288,-1.63989 -0.622342,-0.0296 -1.390837,-0.14975 -1.707766,-0.26699 -0.316931,-0.11724 -1.057899,-0.10334 -1.646597,0.0309 -0.588696,0.13423 -1.520844,0.17358 -2.071439,0.0875 -2.77713,-0.43443 -2.780546,1.99071 -0.0048,3.39315 0.465423,0.23515 1.375659,0.78486 2.022747,1.22158 0.647087,0.43671 1.419757,0.79402 1.717046,0.79402 0.944187,0 4.122158,0.81408 4.740547,1.21436 0.947531,0.61333 0.875231,3.53176 -0.11013,4.44543 -1.3877,1.28675 -1.654156,5.17829 -0.390406,5.70176 0.395015,0.16362 1.249664,0.7852 1.899216,1.38129 0.649555,0.59609 1.597727,1.22924 2.107049,1.407 1.08013,0.37698 1.265029,1.08766 0.264584,1.01695 -3.400621,-0.24034 -5.565119,-0.89245 -5.044477,-1.51979 0.533304,-0.64259 0.232068,-1.56895 -0.605613,-1.86239 -0.644088,-0.22562 -0.825638,-0.1777 -1.233035,0.32541 -0.262745,0.32449 -0.603282,0.58998 -0.756738,0.58998 -0.410072,0 -0.826793,0.90995 -0.826793,1.80538 0,1.54944 -0.589079,1.84969 -3.965292,2.02108 -3.501446,0.17773 -4.300392,0.54173 -3.010588,1.3716 0.416994,0.2683 0.975172,0.7563 1.240396,1.08446 0.265223,0.32816 0.648033,0.59665 0.850688,0.59665 0.202658,0 0.759563,0.33216 1.237567,0.73814 0.478007,0.40598 1.16676,0.88695 1.530562,1.06881 0.363802,0.18187 0.959115,0.50279 1.322917,0.71316 0.363802,0.21038 0.911132,0.38426 1.216287,0.3864 0.305154,0.002 0.811866,0.22683 1.126021,0.4993 0.483204,0.41908 1.223262,0.52494 4.804257,0.68722 4.572622,0.20722 4.967666,0.35257 4.475636,1.64671 -0.193815,0.50977 -0.03601,0.82805 0.974958,1.96633 1.081011,1.21716 1.16432,1.40001 0.802682,1.76165 -0.522838,0.52283 -1.592022,-0.11237 -2.246529,-1.33467 -1.2308,-2.29855 -1.863371,-2.67972 -4.709449,-2.83779 -1.434073,-0.0797 -2.867469,-0.29164 -3.185324,-0.47108 -0.317854,-0.17945 -0.945097,-0.32627 -1.39387,-0.32627 -0.9653,0 -5.961573,-2.43783 -6.18395,-3.01734 -0.154932,-0.40375 -2.545995,-1.74516 -3.110743,-1.74516 -0.215448,0 -0.248751,0.44113 -0.114451,1.51603 0.514421,4.11728 0.15095,5.36314 -1.564651,5.36314 -1.314928,0 -1.474208,-0.21674 -1.474208,-2.00601 0,-0.82063 -0.159501,-1.32849 -0.535231,-1.70422 -0.940255,-0.94026 -1.575953,-0.26561 -3.414842,3.62404 -0.42477,0.89848 -1.0251596,1.76893 -1.3341982,1.93432 -0.3090413,0.16539 -0.674497,0.59689 -0.812128,0.95888 -0.6752934,1.77616 -4.3394043,1.93656 -4.964027,0.21731 -0.4264396,-1.17375 0.4087548,-4.02715 1.5434963,-5.27328 0.2650279,-0.29104 0.563417,-0.85771 0.6630855,-1.25927 0.099669,-0.40156 0.2836995,-0.79344 0.4089559,-0.87085 0.1252564,-0.0774 0.47507,-0.69989 0.7773617,-1.38327 0.3022944,-0.68338 0.7654423,-1.48212 1.029216,-1.77498 0.2637763,-0.29285 0.6102694,-0.92319 0.7699877,-1.40075 0.1597184,-0.47755 0.6956293,-1.37052 1.1909161,-1.98437 0.495284,-0.61385 0.97868,-1.44351 1.074214,-1.84369 0.171206,-0.7172 0.953531,-1.04014 0.961411,-0.39688 0.0095,0.77762 0.413644,1.02147 1.198377,0.72312 0.573625,-0.21809 0.915366,-0.20731 1.384334,0.0437 1.330151,0.71188 2.120914,-0.69321 1.041879,-1.85128 -1.602906,-1.72033 -1.648976,-3.32555 -0.05528,-1.92626 1.047633,0.91983 1.550913,0.86078 2.124972,-0.24932 0.625033,-1.20868 0.484341,-1.76513 -0.62306,-2.4642 -0.55558,-0.35072 -1.208167,-0.93989 -1.450192,-1.30927 -1.097089,-1.67437 -4.140499,-0.98212 -3.77789,0.85931 0.477835,2.42658 0.482365,2.6685 0.04997,2.6685 -0.533781,0 -0.548619,0.36287 -0.03236,0.79133 0.471602,0.3914 0.279136,0.83479 -0.270764,0.62378 -0.222321,-0.0853 -0.611738,0.11805 -0.908767,0.47457 -0.67637,0.81186 -0.7853148,-0.74651 -0.138842,-1.98607 0.524978,-1.0066 0.510696,-1.12992 -0.313037,-2.70323 -0.8612214,-1.64491 -0.3533881,-2.81279 1.36312,-3.13481 1.01791,-0.19096 1.461828,-0.77607 1.461828,-1.9268 0,-0.79577 0.565971,-1.77925 1.4317,-2.48784 0.287065,-0.23496 0.647915,-0.87246 0.801889,-1.41666 0.220588,-0.77965 0.532432,-1.12389 1.470578,-1.62334 1.372518,-0.7307 1.852083,-1.28234 1.852083,-2.13042 0,-0.33092 0.339469,-0.99278 0.754378,-1.47078 0.674608,-0.77721 0.772326,-1.12935 0.924136,-3.33034 0.179909,-2.60832 0.375426,-3.2035 1.420961,-4.32563 1.196586,-1.28423 -1.733002,-2.99472 -3.467058,-2.02429 -0.33351,0.18664 -1.962642,0.53928 -5.056375,1.09449 -0.291042,0.0522 -0.945885,0.35089 -1.455208,0.66368 -0.509323,0.31279 -1.107909,0.56916 -1.33019,0.5697 -0.222285,5.3e-4 -0.6984528,0.20935 -1.0581538,0.46402 -0.3597011,0.25466 -1.0098749,0.58208 -1.4448287,0.7276 -0.4349565,0.14552 -0.9425464,0.58157 -1.1279823,0.96899 -0.1854332,0.38742 -0.841674,1.00086 -1.4583119,1.3632 -0.6166368,0.36233 -1.5372792,1.17644 -2.0458708,1.80913 -0.5085916,0.63269 -1.7289822,1.94024 -2.71197914,2.90567 -1.31914661,1.29558 -1.78726706,1.93975 -1.78726706,2.45943 0,0.39825 -0.2873184,0.99141 -0.6614583,1.36555 -0.3638021,0.3638 -0.6614583,0.82006 -0.6614583,1.01391 0,0.19385 -0.1810674,0.50272 -0.4023718,0.68639 -0.2213046,0.18366 -0.5330954,0.85309 -0.6928683,1.48761 -0.1597731,0.63451 -0.3954245,1.15366 -0.5236699,1.15366 -0.1282454,0 -0.2331734,0.16402 -0.2331734,0.36448 0,0.20046 -0.1812819,0.51493 -0.4028487,0.69881 -0.2268757,0.18829 -0.3364667,0.54349 -0.2508824,0.81314 0.083582,0.26334 0.010356,0.99067 -0.1627225,1.61629 -0.6534944,2.36215 -0.3430328,9.55805 0.4819825,11.17143 0.217551,0.42543 0.4983554,1.59228 0.6240097,2.593 0.1256543,1.00071 0.4095687,2.00059 0.6309204,2.22194 0.2213517,0.22135 0.4024577,0.73269 0.4024577,1.1363 0,0.40974 0.2456733,0.95618 0.5562544,1.23725 0.3059401,0.27687 0.7334153,0.84599 0.9499452,1.26472 0.99370544,1.92161 4.3719359,5.72222 5.0862857,5.72222 0.2950414,0 0.5927514,0.24307 0.6959471,0.56821 0.2496664,0.78663 1.6410778,2.12598 3.09191,2.97622 0.6690333,0.39208 1.3601673,0.88608 1.5358533,1.09777 0.1756886,0.21169 0.691806,0.38754 1.1469291,0.39077 0.4551252,0.003 1.1251562,0.23871 1.4889582,0.52328 0.363802,0.28457 0.89113,0.52005 1.17184,0.52329 0.513379,0.006 1.72222,0.33413 3.193785,0.86715 0.693145,0.25107 3.362159,0.42142 6.901556,0.4405 0.594397,0.003 1.368303,0.12089 1.719792,0.26153 0.351488,0.14063 0.804698,0.2009 1.007131,0.13393 0.202435,-0.067 1.436589,-0.23232 2.742568,-0.36744 z M 8.7752803,153.9293 c 0.174625,-0.17462 0.3175,-0.54154 0.3175,-0.81537 0,-1.44706 1.8193647,-2.83542 3.5684647,-2.72308 1.638607,0.10523 2.781535,0.55007 2.781535,1.0826 0,0.58733 0.849871,1.50015 1.133052,1.21697 0.446982,-0.44699 0.335555,-2.60659 -0.162912,-3.15739 -0.242535,-0.268 -0.440973,-0.78755 -0.440973,-1.15456 0,-3.67503 -1.870183,-4.02402 -5.06241,-0.94469 -2.6262467,2.53337 -2.7595544,2.7435 -3.0085988,4.74248 -0.2361565,1.89554 0.085976,2.54141 0.8743421,1.75304 z m -17.3020757,-4.06114 c 0.3358637,-0.33586 0.3512228,-0.50935 0.085045,-0.96061 -0.2577973,-0.43705 -0.2565826,-0.57544 0.00588,-0.67049 0.4555625,-0.16498 0.4170199,-0.60484 -0.052998,-0.60484 -0.2110502,0 -0.4905195,-0.19083 -0.621043,-0.42406 -0.1305231,-0.23323 -0.4539951,-0.38206 -0.7188263,-0.33073 -0.5931733,0.11497 -0.8524003,0.75479 -0.3058093,0.75479 0.3286304,0 0.345858,0.13268 0.101337,0.78049 -0.469661,1.24428 0.6427787,2.31908 1.5064104,1.45545 z M 21.810693,145.2175 c 0.395697,-0.73937 -0.07335,-1.81862 -0.790374,-1.81862 -0.285576,0 -0.59281,-0.11906 -0.682747,-0.26458 -0.246176,-0.39832 -2.340065,-0.31771 -2.925993,0.11264 -0.624046,0.45835 0.594461,2.00072 1.586431,2.00808 0.300197,0.002 0.724406,0.11947 0.942687,0.26053 0.67391,0.43552 1.552332,0.29551 1.869996,-0.29805 z m 1.350317,-3.57942 c 1.211934,-1.09678 0.196281,-2.42121 -2.282069,-2.97584 -1.905603,-0.42645 -2.261161,-0.17786 -2.261161,1.58089 0,1.79006 3.06632,2.73154 4.54323,1.39495 z m 2.015233,-3.62593 c 0.326811,-0.32681 0.446347,-0.30846 0.891754,0.13695 0.923769,0.92377 2.263632,0.13291 1.736159,-1.02477 -0.239154,-0.52488 -0.452387,-0.62068 -1.232061,-0.55353 -0.789469,0.068 -0.955839,-0.01 -1.022655,-0.47785 -0.210931,-1.47779 -3.662378,-1.8605 -4.685194,-0.51952 -0.810921,1.06317 -0.638984,2.25925 0.327549,2.27858 0.257781,0.005 0.76635,0.18545 1.130152,0.40065 0.76621,0.45323 2.288852,0.32493 2.854296,-0.24051 z m -5.618292,-2.48462 c 1.247523,-0.9954 1.164682,-1.34328 -0.741733,-3.11475 -2.87891,-2.67512 -5.346912,-1.90518 -2.978777,0.92929 0.523052,0.62605 1.084397,1.38878 1.247431,1.69494 0.710149,1.3336 1.275834,1.4458 2.473079,0.49052 z m 7.190412,-1.8781 c 1.039643,-1.4062 -1.053672,-3.42544 -2.800842,-2.70173 -1.91611,0.79367 -1.56522,2.669 0.590023,3.15334 1.613421,0.36259 1.60804,0.36369 2.210819,-0.45161 z m 32.827452,-0.14533 c 0.3933,-0.20339 0.952934,-0.63277 1.243631,-0.9542 0.290698,-0.32142 0.960343,-0.80479 1.488099,-1.07415 1.745311,-0.89078 1.735312,-1.99822 -0.03351,-3.71209 -0.727604,-0.705 -1.322916,-1.44973 -1.322916,-1.65496 0,-0.20524 -0.541859,-0.81717 -1.204132,-1.35985 -1.379424,-1.13033 -1.788475,-0.98918 -2.783581,0.96054 -0.270499,0.52999 -1.095407,1.49163 -1.833123,2.13697 -1.921862,1.6812 -1.80263,4.70461 0.185531,4.70461 0.130791,0 0.386188,0.14883 0.56755,0.33073 0.181358,0.1819 0.88978,0.46541 1.57427,0.63003 0.684488,0.16461 1.280205,0.31344 1.323811,0.33072 0.04361,0.0173 0.401077,-0.13497 0.794375,-0.33835 z m -38.080323,-2.26784 c 1.674156,-1.43185 -0.449273,-4.36267 -2.93556,-4.05176 -1.988619,0.24868 -1.997903,1.31915 -0.03042,3.50746 1.375053,1.52939 1.736603,1.59574 2.965982,0.5443 z m 6.078641,-8.76534 c 0.458276,-0.15976 0.833781,-0.36812 0.834456,-0.46302 7.93e-4,-0.0949 0.339971,-0.53391 0.753996,-0.97557 1.152697,-1.22962 1.403138,-1.83101 1.097396,-2.63517 -0.317822,-0.83593 -0.524713,-0.73857 -2.075574,0.97673 -1.799092,1.98985 -5.276014,0.248 -4.284257,-2.14631 0.647094,-1.56223 -0.546955,-2.46399 -1.559,-1.17739 -0.54987,0.69905 -0.794289,3.64581 -0.389826,4.69983 0.516252,1.34532 3.809153,2.35314 5.622809,1.7209 z m 23.930162,-1.60008 c 3.275434,-0.42005 3.970851,-0.9899 3.143983,-2.57628 -0.316981,-0.60815 -0.576331,-1.27151 -0.576331,-1.47415 0,-0.20263 -0.275892,-0.70498 -0.613093,-1.11633 -0.3372,-0.41135 -0.768363,-1.13486 -0.95814,-1.6078 -0.501862,-1.25069 -1.702189,-0.99088 -3.012033,0.65195 -0.265224,0.33265 -0.637013,0.60482 -0.826198,0.60482 -0.683938,0 -2.528036,2.3213 -2.528036,3.18223 0,2.48282 0.961324,2.90094 5.369848,2.33556 z m -23.180653,-3.26883 c 0.926219,-1.03076 1.21063,-1.19063 2.118177,-1.19063 1.415571,0 2.419136,-0.9919 2.050166,-2.02634 -0.256164,-0.71817 -0.558755,-0.85377 -4.216913,-1.88972 -3.259259,-0.92298 -5.553464,0.0279 -3.582707,1.48497 0.878316,0.64937 1.023615,1.45923 0.520652,2.90203 -0.758846,2.17683 1.360625,2.6672 3.110625,0.71969 z m 20.919659,-8.74817 c 0.776703,-0.16368 0.805937,-1.44244 0.06615,-2.8935 -0.291042,-0.57086 -0.529167,-1.3835 -0.529167,-1.80586 0,-1.64643 -1.414372,-3.52618 -2.246397,-2.98553 -0.292452,0.19004 -1.182394,0.50065 -1.977654,0.69026 -8.998884,2.14552 -4.458052,8.92192 4.687072,6.99463 z m -1.76703,-16.519539 c 0.172328,-4.372629 0.0391,-4.88397 -1.209532,-4.642149 -0.436563,0.08455 -1.686719,0.251079 -2.778125,0.370067 -3.670406,0.400162 -5.027084,1.383914 -5.027084,3.645242 0,1.70257 1.960711,3.263159 4.108509,3.270088 0.440668,0.0013 1.214575,0.297601 1.719791,0.658173 2.347288,1.675262 3.017679,0.980678 3.186441,-3.301421 z m 1.402524,-10.916753 c 2.657856,-6.018599 2.651332,-6.181056 -0.265525,-6.610649 -5.628256,-0.828921 -7.701007,-0.304586 -7.402589,1.872609 0.234582,1.71146 3.729503,5.07146 5.275106,5.07146 0.207688,0 0.525836,0.178593 0.706993,0.396875 0.578252,0.696751 1.168779,0.440962 1.686015,-0.730295 z m 37.833208,66.531572 c -1.2255,-0.78815 -2.179326,-8.1409 -1.18509,-9.13551 0.757481,-0.75777 4.127233,-0.90937 5.657662,-0.25453 3.337475,1.42804 3.45196,7.14628 0.176533,8.81727 -1.069626,0.54568 -4.108988,0.92013 -4.649105,0.57277 z m 4.449458,-2.09924 c 0.941049,-0.94105 0.85213,-4.93223 -0.128746,-5.77894 -1.753177,-1.51335 -4.294781,-0.72845 -4.225095,1.30482 0.172308,5.02753 1.961653,6.86631 4.353841,4.47412 z m -10.034773,1.45161 c -0.144174,-0.1819 -0.463486,-0.80698 -0.709583,-1.38906 -2.253366,-5.3298 -3.086344,-5.97817 -3.4587,-2.69218 -0.271629,2.39708 -0.673557,3.0795 -1.60357,2.72262 -0.451321,-0.17319 -0.507593,-1.71418 -0.112284,-3.0749 0.147687,-0.50836 0.325884,-1.6982 0.395999,-2.64409 0.164261,-2.21606 0.553598,-3.17621 1.285809,-3.17094 0.92887,0.007 1.164106,0.30486 2.393151,3.03355 1.257395,2.79164 1.915379,3.77713 2.275721,3.40844 0.297495,-0.30438 1.053716,-3.62573 1.053716,-4.62796 0,-0.71107 0.07673,-0.78607 0.727604,-0.71118 0.860391,0.099 1.080881,0.89583 0.581499,2.10145 -0.176983,0.42727 -0.357346,1.21964 -0.40081,1.76081 -0.04346,0.54118 -0.260381,1.46021 -0.482044,2.04229 -0.221663,0.58209 -0.408249,1.43679 -0.414636,1.89933 -0.0172,1.24644 -0.955826,2.0686 -1.531872,1.34182 z m 16.211003,-2.23636 c -1.044618,-4.07398 -1.283507,-7.35479 -0.535536,-7.35479 0.559779,0 0.91934,0.97017 1.519913,4.10104 0.807317,4.20867 -0.02993,6.97608 -0.984377,3.25375 z m 4.417149,0.78115 c -0.1731,-0.35574 -0.23917,-7.49922 -0.0855,-9.24259 0.0934,-1.05889 2.03003,-0.49059 2.45186,0.71947 0.14618,0.41934 0.49843,0.83627 0.78277,0.92652 0.28433,0.0902 0.80379,0.61843 1.15435,1.17374 0.35055,0.55532 1.23905,1.51702 1.97445,2.13711 1.35338,1.14119 1.6777,1.91561 0.92344,2.20505 -0.44045,0.16902 -1.96762,-0.49862 -1.96762,-0.86019 0,-0.28282 -1.21326,-0.82942 -1.84101,-0.82942 -0.80423,0 -1.86315,1.48522 -1.86315,2.61322 0,1.44634 -1.01517,2.21429 -1.52961,1.15709 z m 2.83849,-4.94403 c 0.51356,-0.6188 -0.11854,-1.52325 -0.99369,-1.42183 -0.86415,0.10016 -1.09146,0.89599 -0.40459,1.41649 0.62735,0.47538 1.00698,0.47683 1.39828,0.005 z m -33.799716,3.76663 c -0.478264,-0.47826 -0.372756,-1.26022 0.367704,-2.7252 0.367761,-0.72761 0.836227,-1.8587 1.041033,-2.51355 0.758473,-2.42512 2.41836,-4.21278 2.855042,-3.07481 0.254338,0.6628 -0.282583,2.2792 -1.222243,3.67953 -0.637403,0.9499 -0.978061,1.81335 -1.093616,2.77194 -0.262943,2.18125 -0.961236,2.84878 -1.94792,1.86209 z m 15.954375,-12.04574 c -0.807313,-0.11506 -2.248959,-1.25775 -2.248959,-1.78259 0,-0.15868 -0.208359,-0.58289 -0.46302,-0.94269 -0.569019,-0.80395 -1.11515,-2.30805 -1.120495,-3.08596 -0.0021,-0.31884 -0.09995,-0.63901 -0.217247,-0.71151 -0.117292,-0.0725 -0.667096,-1.06178 -1.221787,-2.19842 -1.46498,-3.00197 -1.703544,-3.56528 -1.883691,-4.44788 -0.66372,-3.2518 -2.307394,-4.95061 -2.428962,-2.51043 -0.25295,5.07726 -4.23436,6.68793 -6.045277,2.4456 -0.369226,-0.86497 -0.385551,-1.38834 -0.126196,-4.04532 0.163844,-1.6785 0.300337,-4.7146 0.303316,-6.74688 0.003,-2.03228 0.02816,-5.60005 0.05595,-7.92838 0.05331,-4.46598 -0.25685,-5.3518 -1.394079,-3.981523 -0.246081,0.296511 -0.838214,0.409644 -2.144046,0.409644 -2.253935,0 -2.025401,-0.718772 -2.230816,7.016259 -0.09654,3.63538 -0.225245,7.91947 -0.286001,9.5202 -0.06076,1.60073 -0.108408,3.50573 -0.105892,4.23333 0.0069,1.99322 -0.765662,2.82662 -2.664386,2.87423 -2.581188,0.0647 -2.852587,-0.31833 -2.746258,-3.87611 0.04877,-1.63178 0.151251,-7.70719 0.227745,-13.50091 0.0765,-5.793728 0.193543,-10.622168 0.260104,-10.729866 0.06656,-0.107702 0.188248,-4.185923 0.270412,-9.062715 0.145746,-8.650579 0.165497,-8.907992 0.809543,-10.551398 1.27753,-3.259863 5.041924,-5.475441 7.874077,-4.634384 0.742571,0.220523 1.63209,0.400947 1.976707,0.400947 0.789189,0 2.075421,0.657323 2.900259,1.482159 0.768596,0.768596 1.247394,0.796261 2.105047,0.121632 0.693589,-0.545576 2.510258,-1.190744 4.101219,-1.4565 1.270912,-0.212293 1.639379,-0.666083 1.289044,-1.587539 -0.148651,-0.390978 -0.270272,-1.103464 -0.270272,-1.583304 0,-0.568439 -0.272933,-1.215877 -0.783291,-1.858076 -2.785829,-3.505513 1.073261,-6.01603 4.336548,-2.821123 2.257149,2.209856 4.632878,3.039661 7.29466,2.547917 2.858156,-0.528024 4.262848,3.340811 1.918229,5.283234 -0.929381,0.769956 -1.242528,3.160183 -0.576953,4.403823 0.431178,0.805661 -0.16891,1.376352 -1.260909,1.199147 -1.933278,-0.31373 -2.17859,1.138801 -0.459883,2.723049 0.66439,0.612413 1.418765,1.490779 1.676387,1.951927 0.720881,1.290378 1.700654,1.176234 1.887405,-0.219887 0.07786,-0.582084 0.223396,-1.190461 0.323408,-1.351952 0.100013,-0.161489 0.24061,-1.303928 0.312439,-2.538752 0.193275,-3.322645 0.551635,-3.963646 2.662169,-4.761843 1.272476,-0.481248 2.379073,-0.140317 3.285713,1.012293 0.60886,0.774041 0.61202,1.010338 0.13054,9.778277 -0.24845,4.524407 0.0426,4.807011 5.21212,5.061514 3.37299,0.166058 3.36069,0.196633 3.16219,-7.860996 -0.0732,-2.971577 -0.0998,-3.005082 -2.75202,-3.461147 -3.53977,-0.608692 -4.84325,-3.213377 -2.238,-4.472098 2.02587,-0.978789 14.57492,-0.615567 15.85175,0.458819 1.8887,1.589233 0.65897,4.034843 -2.02883,4.034843 -0.76884,0 -1.59062,0.07396 -1.82619,0.164354 -1.63459,0.62725 -1.82014,6.093941 -0.22078,6.504609 0.67381,0.173014 2.119,-0.479504 2.4558,-1.108824 0.52436,-0.97976 4.76458,-0.272039 4.76458,0.795237 0,0.142566 0.21164,0.259207 0.4703,0.259207 2.40334,0 1.93987,2.674356 -0.56875,3.281858 -1.75515,0.425039 -3.34043,2.255258 -3.34505,3.861892 -0.005,1.590797 -0.096,1.812145 -1.00471,2.433011 -0.61175,0.417962 -0.61175,0.417962 0.19844,0.994867 1.01714,0.724263 1.07721,1.709886 0.14873,2.440226 -0.49922,0.392684 -0.66146,0.768091 -0.66146,1.530541 0,0.55563 -0.23551,1.529252 -0.52335,2.163609 -0.28785,0.634354 -0.52597,1.6677 -0.52917,2.296322 -0.004,0.80143 -0.22564,1.47344 -0.7415,2.24896 -0.40463,0.6083 -0.90548,1.44178 -1.11298,1.85218 -0.20751,0.41039 -0.64501,1.01389 -0.97224,1.34111 -1.02205,1.02205 -1.10796,1.88164 -1.23383,12.34427 -0.0531,4.41304 -0.28354,5.06484 -1.95369,5.52599 -1.25642,0.34692 -2.8667,-0.0553 -3.27491,-0.81808 -0.30755,-0.57466 -0.16229,-15.31843 0.156,-15.83343 0.0851,-0.13769 0.16954,-1.65225 0.18766,-3.36569 0.0181,-1.71344 0.12733,-3.37878 0.24267,-3.70076 0.11925,-0.332868 0.0829,-0.94931 -0.0843,-1.42896 -0.22038,-0.632172 -0.21254,-1.161645 0.0313,-2.112955 0.41281,-1.610693 -0.0176,-2.751836 -1.03791,-2.751836 -1.0823,0 -1.88479,1.790266 -1.99085,4.441368 -0.0478,1.195268 -0.096,2.358133 -0.10717,2.584153 -0.0111,0.22601 -0.73314,0.91369 -1.60447,1.52816 -1.51151,1.06595 -2.29933,2.09099 -2.53079,3.29285 -0.0583,0.3025 -0.21116,0.61828 -0.33978,0.70173 -0.95782,0.62146 -1.44493,3.37049 -1.36965,7.72973 0.0289,1.67488 -0.0714,2.73578 -0.29215,3.08925 -0.25979,0.41599 -0.26674,0.6908 -0.0306,1.20912 0.24168,0.53041 0.22509,0.8252 -0.0792,1.40867 -0.21169,0.40584 -0.38577,0.85695 -0.38685,1.00247 -0.001,0.14552 -0.283549,0.592 -0.627725,0.99219 -1.381625,1.60645 -5.034346,0.19022 -4.650277,-1.803 0.226262,-1.17425 -0.677785,-1.39308 -1.258215,-0.30457 -0.746474,1.39992 -1.417735,3.42822 -1.507442,4.55496 -0.04634,0.58209 -0.224565,1.40472 -0.39605,1.82808 -0.171487,0.42336 -0.360206,1.40065 -0.41938,2.17175 -0.11007,1.43435 -0.499886,2.48246 -0.92328,2.48246 -0.130593,0 -0.315629,0.24634 -0.411189,0.54743 -0.175418,0.55269 -1.621747,1.60007 -2.110872,1.52861 -0.145521,-0.0213 -0.621771,-0.0896 -1.058333,-0.15178 z m 25.666371,-11.40357 c 0.0962,-0.24341 0.23516,-1.69272 0.30869,-3.22069 0.1354,-2.81352 0.48316,-8.59716 0.72784,-12.1048 0.0736,-1.0551 0.26222,-2.15827 0.41915,-2.4515 0.15693,-0.29323 0.39613,-2.46607 0.53155,-4.828526 0.13543,-2.362459 0.33645,-5.426472 0.44672,-6.80892 0.11028,-1.382448 0.16491,-5.636358 0.1214,-9.453134 -0.0866,-7.600539 0.0526,-8.220792 1.86261,-8.300791 2.71185,-0.119856 3.38546,-0.404058 3.38546,-1.428366 0,-1.186381 -1.57285,-1.384229 -9.75445,-1.227 -4.15679,0.07988 -5.06222,0.272846 -5.06222,1.078852 0,0.754403 0.62412,0.985453 3.23501,1.19762 3.66803,0.298074 4.91019,4.209947 3.23738,10.195319 -0.48866,1.748441 -0.64111,5.08058 -0.73445,16.053425 -0.0641,7.533161 -0.16344,9.931831 -0.42441,10.246271 -0.23063,0.2779 -0.28799,0.81873 -0.17752,1.67366 0.22216,1.71917 0.21618,1.95944 -0.12032,4.83498 -0.44239,3.78049 1.00107,7.06375 1.99756,4.5436 z m -14.223875,-0.37641 c 0.620495,-0.78178 0.995873,-2.62605 1.036669,-5.09323 0.06234,-3.77048 0.514842,-9.60466 0.841366,-10.84792 0.15287,-0.58208 0.27681,-1.77271 0.27541,-2.64583 -0.001,-0.87313 0.0664,-2.00422 0.15071,-2.513546 0.0843,-0.509323 0.15264,-5.450416 0.15189,-10.980208 -7.9e-4,-5.854107 0.11616,-10.772598 0.27997,-11.773958 0.55407,-3.387104 -0.43313,-5.979518 -2.059248,-5.407644 -1.266722,0.445484 -1.61735,2.026523 -1.844704,8.31806 -0.05522,1.527969 -0.149162,4.028282 -0.208767,5.55625 -0.05961,1.527969 -0.112305,3.572256 -0.117107,4.542862 -0.0048,0.970605 -0.127312,1.838023 -0.272246,1.927595 -0.168394,0.104074 -0.175008,0.395642 -0.01831,0.807752 0.136094,0.35796 0.17295,2.090182 0.08284,3.893238 -0.08929,1.786591 -0.148278,3.665059 -0.13108,4.174389 0.0172,0.50932 -0.08352,1.28323 -0.223827,1.71979 -0.212572,0.66143 -0.616577,12.4783 -0.528063,15.44551 0.04314,1.4468 1.062897,3.20761 1.857629,3.20761 0.255405,0 0.582498,-0.14882 0.726871,-0.33072 z m -12.420933,-0.53955 c 0.335012,-0.3566 0.560167,-0.92783 0.547507,-1.38906 -0.01183,-0.43085 0.04074,-1.91447 0.116822,-3.29692 0.07608,-1.38244 0.220067,-4.00182 0.319973,-5.82083 0.0999,-1.81901 0.223047,-4.91463 0.273646,-6.87917 0.123809,-4.806829 0.25274,-6.720632 0.477234,-7.083873 0.179284,-0.290087 0.471379,-10.513616 0.500832,-17.529471 0.02727,-6.497048 -3.930544,-9.813407 -8.97048,-7.516604 -0.458555,0.208973 -1.001827,0.379952 -1.20727,0.379952 -0.205444,0 -0.715741,0.357188 -1.133994,0.79375 -0.970161,1.01263 -1.857655,1.016913 -3.073347,0.01484 -3.270126,-2.695514 -9.458865,-2.57698 -10.150465,0.194414 -0.09838,0.394234 -0.332157,0.895384 -0.519504,1.113665 -0.548468,0.639035 -0.703958,2.658729 -0.702736,9.128125 5.3e-4,3.346979 -0.106433,6.621198 -0.237923,7.276042 -0.279099,1.38997 -0.503288,13.51675 -0.271474,14.68438 0.08667,0.43656 0.058,1.38906 -0.06371,2.11666 -0.242488,1.44957 -0.562407,7.41636 -0.550609,10.26931 0.0087,2.0899 0.63735,3.12054 1.591935,2.60966 0.971994,-0.5202 1.172924,-2.77725 1.558721,-17.50917 0.08574,-3.274225 0.241199,-7.32235 0.345458,-8.99584 0.104257,-1.67349 0.165942,-5.900208 0.137073,-9.392708 -0.05037,-6.094244 -0.02831,-6.403282 0.547786,-7.672917 0.330149,-0.727604 0.681894,-1.583452 0.781653,-1.901883 0.654568,-2.089351 7.029434,-1.041025 7.036898,1.157197 7.94e-4,0.264057 0.170616,0.804029 0.377155,1.199941 0.262189,0.502584 0.328743,1.181352 0.220517,2.248959 -0.16343,1.612212 -0.175715,2.020316 -0.105759,3.513494 0.02387,0.509323 -0.149127,1.997604 -0.384418,3.307292 -0.375822,2.091912 -0.670581,26.492095 -0.381947,31.617715 0.02868,0.50932 -0.02651,1.17618 -0.122643,1.48191 -0.471881,1.50068 1.47637,1.88535 2.209882,0.43632 0.887153,-1.75255 0.971164,-2.84737 1.202936,-15.67657 0.04864,-2.69213 0.171633,-7.105206 0.273328,-9.806824 0.190744,-5.067347 0.26402,-13.141835 0.123502,-13.608801 -0.06602,-0.219395 0.130234,-1.657736 0.443953,-3.253724 0.03712,-0.18882 0.501877,-0.873429 1.032803,-1.521354 1.01563,-1.239444 1.403702,-1.358882 3.046561,-0.937665 0.509323,0.130585 1.233051,0.30566 1.608286,0.389054 0.739023,0.164245 1.302131,1.106355 1.302131,2.178531 0,0.366522 0.123251,0.896702 0.273891,1.178177 0.192971,0.360569 0.183809,0.680095 -0.03101,1.081489 -0.283451,0.529633 -0.624808,5.585018 -0.543891,8.054854 0.01953,0.596169 -0.136924,1.656913 -0.347684,2.357207 -0.248642,0.82618 -0.298293,1.431898 -0.141401,1.725057 0.212077,0.396269 0.167111,6.393563 -0.12592,16.794209 -0.09128,3.23995 -0.333746,7.64261 -0.509987,9.26042 -0.319326,2.93123 1.652108,4.90577 3.225689,3.23077 z M 70.449674,87.447759 c 0.206467,-0.432022 0.611436,-0.976633 0.89993,-1.210241 0.660498,-0.53484 0.853053,-8.754065 0.238373,-10.175092 -0.718129,-1.660186 -3.056344,-2.504826 -4.252584,-1.536168 -1.063707,0.861338 -1.754288,11.295584 -0.828029,12.511019 1.015851,1.333002 3.383616,1.579538 3.94231,0.410482 z m 9.21998,-7.400912 c 0.426929,-0.359235 0.917668,-1.151699 1.105959,-1.785937 0.186166,-0.627084 0.447304,-1.273887 0.580308,-1.437344 0.622924,-0.765559 -0.863661,-1.860817 -1.959944,-1.444011 -0.987504,0.375449 -1.299556,0.976048 -1.444355,2.779903 -0.212886,2.652133 0.230418,3.139136 1.718032,1.887389 z M 128.1443,69.035553 c -0.55739,-0.782786 -0.62357,-0.803246 -2.02985,-0.627541 -2.12758,0.265824 -1.07108,-1.42471 1.51166,-2.418853 0.65485,-0.252061 1.43643,-0.678299 1.73685,-0.9472 0.97316,-0.871051 2.08807,-0.283189 2.74345,1.446546 0.63044,1.663916 0.0195,2.395008 -0.96039,1.149273 -1.33135,-1.692534 -2.56932,-1.400096 -1.88534,0.445368 0.31897,0.860615 0.35659,1.252082 0.14105,1.467625 -0.44361,0.443603 -0.62868,0.367768 -1.25743,-0.515218 z m -5.82812,-3.253563 c -1.63662,-0.653182 -2.16635,-1.422704 -1.9388,-2.816439 0.26372,-1.615316 0.34414,-1.732695 1.82318,-2.661383 0.79754,-0.500769 1.45159,-0.985345 1.45344,-1.07683 0.0203,-1.005023 2.74172,-0.801563 3.28316,0.245459 1.83533,3.549134 -1.18931,7.67879 -4.62098,6.309193 z m 2.99483,-1.899528 c 1.62176,-1.189831 1.78371,-2.45632 0.42014,-3.285554 -2.02847,-1.23359 -4.79574,2.027944 -3.13212,3.69156 0.73636,0.736359 1.26223,0.657632 2.71198,-0.406006 z m -68.227247,0.811231 c -2.414953,-1.02507 -5.340615,-4.373975 -3.821182,-4.373975 0.282454,0 0.579893,0.107338 0.660972,0.238529 0.08108,0.131194 0.508905,0.364546 0.950719,0.518563 0.896729,0.312602 0.884828,0.237865 -0.194553,-1.221669 -0.899883,-1.216819 -0.608611,-1.477576 1.409115,-1.261496 1.911808,0.204737 2.03717,0.05423 1.157123,-1.389176 -0.642821,-1.054325 -0.664225,-1.382668 -0.09013,-1.382668 0.693052,0 2.07854,1.195065 2.904903,2.505649 0.416951,0.661273 0.966578,1.269053 1.221393,1.350627 1.80984,0.579368 0.852022,1.619469 -1.104876,1.19979 -2.052071,-0.440092 -2.907326,0.247536 -1.475092,1.185973 1.455076,0.953403 5.3e-4,3.317029 -1.618392,2.629853 z M 116.51361,59.87294 c -1.56338,-0.577128 -3.03726,-3.213622 -2.01565,-3.605648 0.20107,-0.07716 0.99039,-1.10193 1.75404,-2.277266 1.55325,-2.390617 1.83364,-2.510833 3.56891,-1.530158 1.19227,0.673809 1.62365,1.774433 0.69547,1.774433 -0.29258,0 -0.60554,-0.119062 -0.69547,-0.264583 -0.24955,-0.403782 -1.6131,-0.315069 -1.98158,0.128922 -0.44502,0.536213 -0.16803,1.124533 0.78468,1.666685 1.55204,0.883197 0.97593,1.681093 -0.7063,0.978213 -1.9097,-0.797924 -2.48175,-0.0065 -0.98574,1.363792 1.27929,1.171787 1.01335,2.294131 -0.41836,1.76561 z M 65.499963,56.210941 c -0.464574,-0.659099 -0.844683,-1.291667 -0.844683,-1.405708 0,-0.522065 -1.528273,-1.597974 -2.38125,-1.676406 -1.399751,-0.128709 -1.324649,-1.215776 0.132292,-1.91486 0.582083,-0.279302 1.385999,-0.673362 1.78648,-0.87569 1.238062,-0.625482 1.684052,0.13406 0.753501,1.283244 -0.579768,0.71598 -0.07189,2.160485 0.983367,2.796895 0.596908,0.359986 1.371444,1.773225 1.371444,2.502368 0,0.890726 -0.931815,0.523492 -1.801151,-0.709843 z m 45.713087,-0.34159 c -1.37977,-0.611518 -2.10777,-1.644259 -2.10777,-2.990074 0,-0.860645 0,-0.860645 -0.74208,-0.149685 -1.30525,1.25051 -1.96279,0.783688 -1.11753,-0.793391 0.29518,-0.550745 0.54222,-1.241243 0.54898,-1.53444 0.0187,-0.811898 1.6672,-3.708085 2.11062,-3.708085 0.68406,0 0.57876,1.096002 -0.25552,2.659406 -0.85395,1.600264 -1.02772,2.505466 -0.47832,2.491654 0.3854,-0.0097 1.10086,-0.931663 1.36108,-1.753953 0.80279,-2.536747 5.45194,-1.906658 5.45194,0.73889 0,1.014964 -0.51709,1.235759 -1.10109,0.470163 -0.92874,-1.217518 -1.04048,-1.298868 -1.78408,-1.298868 -1.62355,0 -3.11748,2.381692 -2.43436,3.880976 0.24503,0.537768 0.46857,0.61694 1.74198,0.61694 1.23039,0 1.46088,0.07514 1.46088,0.47625 0,0.967656 -1.41422,1.444018 -2.65473,0.894217 z M 68.49712,53.037136 c -1.094909,-2.338635 -1.607063,-4.318444 -1.217824,-4.707685 0.349774,-0.349774 1.080151,0.252881 1.080151,0.891265 0,0.619549 0.696981,1.309418 1.322917,1.309418 0.680294,0 1.388824,-0.770339 1.187312,-1.290886 -0.672608,-1.737476 -0.151686,-2.73015 0.922536,-1.757992 0.60066,0.543588 1.151416,0.297909 0.925793,-0.412972 -0.441378,-1.390657 3.122525,-3.256371 4.186994,-2.191903 0.256911,0.256911 -0.31464,1.155837 -0.734899,1.155837 -0.672623,0 -1.829546,1.198625 -1.638204,1.697255 0.149579,0.389801 0.391736,0.430728 1.631807,0.275791 1.774785,-0.221745 1.901944,0.120155 0.397827,1.069662 -1.787218,1.128222 -1.20075,2.162787 1.05051,1.853159 1.875123,-0.257895 1.940727,0.630378 0.106482,1.441752 -1.981597,0.876555 -3.404624,0.168747 -3.940403,-1.959939 -0.335489,-1.332912 -1.064715,-1.679617 -0.786926,-0.374136 0.104306,0.490186 0.363915,1.089078 0.576908,1.33087 0.515376,0.585063 0.352652,1.911055 -0.248516,2.025065 -0.265697,0.05039 -0.537167,-0.118172 -0.635529,-0.394612 -0.448582,-1.260712 -1.690137,-1.820589 -2.419609,-1.091117 -0.397182,0.397183 -0.411702,1.334548 -0.02663,1.719616 0.373274,0.373274 0.05386,1.402467 -0.435261,1.402467 -0.205711,0 -0.791805,-0.893853 -1.305433,-1.990915 z m 34.0911,-1.240342 c -0.65646,-1.062181 -0.28533,-6.558326 0.44285,-6.558326 0.41316,0 0.78254,0.990921 0.78254,2.099272 0,1.628256 1.32818,1.19133 2.3858,-0.784846 0.26633,-0.497654 1.58295,-0.759753 1.58295,-0.315118 0,0.113056 -0.44648,0.821749 -0.99218,1.574871 -0.54571,0.753122 -1.44373,2.02984 -1.99562,2.83715 -0.98756,1.444616 -1.77076,1.851777 -2.20634,1.146997 z M 84.302223,50.801385 c -1.089319,-0.258602 -1.655276,-0.727117 -1.655276,-1.370285 0,-0.644892 0.719638,-0.926622 1.354376,-0.530222 0.26979,0.168487 0.738997,0.30634 1.042685,0.30634 0.92976,0 0.48644,-0.831306 -0.784513,-1.471103 -1.788239,-0.900198 -2.503151,-2.907426 -1.393277,-3.911848 0.624104,-0.564806 3.019446,-0.601841 3.474347,-0.05372 0.40496,0.487948 0.228293,1.362131 -0.253212,1.252945 -1.655363,-0.37537 -1.852906,-0.370654 -1.852906,0.04423 0,0.233514 0.464995,0.661793 1.033322,0.951732 2.36051,1.204241 2.799464,3.715219 0.833417,4.767416 -0.564873,0.302311 -0.585931,0.302481 -1.798963,0.01451 z m 6.096616,-0.378184 C 89.2314,49.998185 89.258212,50.055248 89.129262,47.72146 c -0.0634,-1.147365 -0.191852,-2.534242 -0.285456,-3.081949 -0.289793,-1.695678 1.248945,-2.576135 3.508047,-2.007287 0.973127,0.245036 1.609209,0.950599 0.944573,1.047749 -0.10914,0.01595 -0.581811,0.06137 -1.050375,0.100931 -2.268799,0.191544 -2.271783,1.98673 -0.0033,1.98673 0.349115,0 0.714391,0.07963 0.811723,0.176966 0.300958,0.30096 -0.665805,1.145951 -1.311095,1.145951 -1.66874,0 -1.078045,1.495 0.770631,1.950405 0.865536,0.213218 1.175303,0.803792 0.713478,1.360256 -0.378066,0.455541 -1.611424,0.465129 -2.828645,0.02199 z m 8.637156,-0.769533 c -0.48996,-1.945816 -2.308487,-2.459687 -2.657938,-0.751069 -0.187359,0.916082 -0.644945,1.572727 -0.910743,1.306931 -0.547315,-0.547315 0.662723,-6.925493 1.364996,-7.194981 0.484645,-0.185976 3.047889,0.367449 3.45328,0.745591 0.26813,0.250111 0.5248,2.715456 0.36051,3.462703 -0.032,0.14552 -0.0765,0.978958 -0.099,1.852083 -0.0552,2.147607 -1.022767,2.518176 -1.511125,0.578742 z m 0.175054,-3.710406 c 0.905371,-0.778771 0.650264,-1.233961 -0.691571,-1.233961 -1.253971,0 -1.789205,0.658767 -1.128445,1.388897 0.55943,0.618163 0.960975,0.58398 1.820016,-0.154936 z"
       id="path255" />
  </g>
</svg>
